<svg xmlns="http://www.w3.org/2000/svg" width="512" height="512" viewBox="0 0 512 512" role="img" aria-label="token symbol">
  <defs>
    <filter id="softShadow" x="-50%" y="-50%" width="200%" height="200%">
      <feDropShadow dx="0" dy="6" stdDeviation="10" flood-opacity="0.25"/>
    </filter>
  </defs>

  <defs>
    <radialGradient id="grad_apollo2" cx="30%" cy="30%" r="80%">
      <stop offset="0%" stop-color="#FFE9B0"/>
      <stop offset="100%" stop-color="#E88E10"/>
    </radialGradient>
  </defs>
  <g filter="url(#softShadow)">
    <circle cx="256.0" cy="256.0" r="244.0" fill="url(#grad_apollo2)"/>
    <circle cx="256.0" cy="256.0" r="232.0" fill="none" stroke="rgba(255,255,255,0.5)" stroke-width="6"/>
    <circle cx="256.0" cy="256.0" r="216.0" fill="none" stroke="rgba(0,0,0,0.08)" stroke-width="8"/>
  </g>
  <g transform="translate(256,256)">
    <line x1="200.00" y1="0.00" x2="182.00" y2="0.00" stroke="rgba(255,255,255,0.7)" stroke-width="8" stroke-linecap="square"/>
    <line x1="193.19" y1="51.76" x2="175.80" y2="47.11" stroke="rgba(255,255,255,0.7)" stroke-width="8" stroke-linecap="square"/>
    <line x1="173.21" y1="100.00" x2="157.62" y2="91.00" stroke="rgba(255,255,255,0.7)" stroke-width="8" stroke-linecap="square"/>
    <line x1="141.42" y1="141.42" x2="128.69" y2="128.69" stroke="rgba(255,255,255,0.7)" stroke-width="8" stroke-linecap="square"/>
    <line x1="100.00" y1="173.21" x2="91.00" y2="157.62" stroke="rgba(255,255,255,0.7)" stroke-width="8" stroke-linecap="square"/>
    <line x1="51.76" y1="193.19" x2="47.11" y2="175.80" stroke="rgba(255,255,255,0.7)" stroke-width="8" stroke-linecap="square"/>
    <line x1="0.00" y1="200.00" x2="0.00" y2="182.00" stroke="rgba(255,255,255,0.7)" stroke-width="8" stroke-linecap="square"/>
    <line x1="-51.76" y1="193.19" x2="-47.11" y2="175.80" stroke="rgba(255,255,255,0.7)" stroke-width="8" stroke-linecap="square"/>
    <line x1="-100.00" y1="173.21" x2="-91.00" y2="157.62" stroke="rgba(255,255,255,0.7)" stroke-width="8" stroke-linecap="square"/>
    <line x1="-141.42" y1="141.42" x2="-128.69" y2="128.69" stroke="rgba(255,255,255,0.7)" stroke-width="8" stroke-linecap="square"/>
    <line x1="-173.21" y1="100.00" x2="-157.62" y2="91.00" stroke="rgba(255,255,255,0.7)" stroke-width="8" stroke-linecap="square"/>
    <line x1="-193.19" y1="51.76" x2="-175.80" y2="47.11" stroke="rgba(255,255,255,0.7)" stroke-width="8" stroke-linecap="square"/>
    <line x1="-200.00" y1="0.00" x2="-182.00" y2="0.00" stroke="rgba(255,255,255,0.7)" stroke-width="8" stroke-linecap="square"/>
    <line x1="-193.19" y1="-51.76" x2="-175.80" y2="-47.11" stroke="rgba(255,255,255,0.7)" stroke-width="8" stroke-linecap="square"/>
    <line x1="-173.21" y1="-100.00" x2="-157.62" y2="-91.00" stroke="rgba(255,255,255,0.7)" stroke-width="8" stroke-linecap="square"/>
    <line x1="-141.42" y1="-141.42" x2="-128.69" y2="-128.69" stroke="rgba(255,255,255,0.7)" stroke-width="8" stroke-linecap="square"/>
    <line x1="-100.00" y1="-173.21" x2="-91.00" y2="-157.62" stroke="rgba(255,255,255,0.7)" stroke-width="8" stroke-linecap="square"/>
    <line x1="-51.76" y1="-193.19" x2="-47.11" y2="-175.80" stroke="rgba(255,255,255,0.7)" stroke-width="8" stroke-linecap="square"/>
    <line x1="-0.00" y1="-200.00" x2="-0.00" y2="-182.00" stroke="rgba(255,255,255,0.7)" stroke-width="8" stroke-linecap="square"/>
    <line x1="51.76" y1="-193.19" x2="47.11" y2="-175.80" stroke="rgba(255,255,255,0.7)" stroke-width="8" stroke-linecap="square"/>
    <line x1="100.00" y1="-173.21" x2="91.00" y2="-157.62" stroke="rgba(255,255,255,0.7)" stroke-width="8" stroke-linecap="square"/>
    <line x1="141.42" y1="-141.42" x2="128.69" y2="-128.69" stroke="rgba(255,255,255,0.7)" stroke-width="8" stroke-linecap="square"/>
    <line x1="173.21" y1="-100.00" x2="157.62" y2="-91.00" stroke="rgba(255,255,255,0.7)" stroke-width="8" stroke-linecap="square"/>
    <line x1="193.19" y1="-51.76" x2="175.80" y2="-47.11" stroke="rgba(255,255,255,0.7)" stroke-width="8" stroke-linecap="square"/>
  </g>
  <g transform="translate(256,256)">
    <circle r="70" fill="#FFF7D6" stroke="#F5C24B" stroke-width="6"/>
    <path d="M92.0,0.0 L133.6,-10.7 L133.6,10.7 Z" fill="#F5C24B" opacity="0.95"/>
    <path d="M85.0,35.2 L127.5,41.2 L119.3,61.0 Z" fill="#F5C24B" opacity="0.95"/>
    <path d="M65.1,65.1 L102.0,86.9 L86.9,102.0 Z" fill="#F5C24B" opacity="0.95"/>
    <path d="M35.2,85.0 L61.0,119.3 L41.2,127.5 Z" fill="#F5C24B" opacity="0.95"/>
    <path d="M0.0,92.0 L10.7,133.6 L-10.7,133.6 Z" fill="#F5C24B" opacity="0.95"/>
    <path d="M-35.2,85.0 L-41.2,127.5 L-61.0,119.3 Z" fill="#F5C24B" opacity="0.95"/>
    <path d="M-65.1,65.1 L-86.9,102.0 L-102.0,86.9 Z" fill="#F5C24B" opacity="0.95"/>
    <path d="M-85.0,35.2 L-119.3,61.0 L-127.5,41.2 Z" fill="#F5C24B" opacity="0.95"/>
    <path d="M-92.0,0.0 L-133.6,10.7 L-133.6,-10.7 Z" fill="#F5C24B" opacity="0.95"/>
    <path d="M-85.0,-35.2 L-127.5,-41.2 L-119.3,-61.0 Z" fill="#F5C24B" opacity="0.95"/>
    <path d="M-65.1,-65.1 L-102.0,-86.9 L-86.9,-102.0 Z" fill="#F5C24B" opacity="0.95"/>
    <path d="M-35.2,-85.0 L-61.0,-119.3 L-41.2,-127.5 Z" fill="#F5C24B" opacity="0.95"/>
    <path d="M-0.0,-92.0 L-10.7,-133.6 L10.7,-133.6 Z" fill="#F5C24B" opacity="0.95"/>
    <path d="M35.2,-85.0 L41.2,-127.5 L61.0,-119.3 Z" fill="#F5C24B" opacity="0.95"/>
    <path d="M65.1,-65.1 L86.9,-102.0 L102.0,-86.9 Z" fill="#F5C24B" opacity="0.95"/>
    <path d="M85.0,-35.2 L119.3,-61.0 L127.5,-41.2 Z" fill="#F5C24B" opacity="0.95"/>
  </g>
  <g transform="translate(256,256) rotate(-8)">
    <ellipse cx="0.0" cy="-150.0" rx="14" ry="9" transform="rotate(-110.0 0.0 -150.0)" fill="#6BCD7B" stroke="#2F8A44" stroke-width="3"/>
    <ellipse cx="26.0" cy="-147.7" rx="14" ry="9" transform="rotate(-100.0 26.0 -147.7)" fill="#6BCD7B" stroke="#2F8A44" stroke-width="3"/>
    <ellipse cx="51.3" cy="-141.0" rx="14" ry="9" transform="rotate(-90.0 51.3 -141.0)" fill="#6BCD7B" stroke="#2F8A44" stroke-width="3"/>
    <ellipse cx="75.0" cy="-129.9" rx="14" ry="9" transform="rotate(-80.0 75.0 -129.9)" fill="#6BCD7B" stroke="#2F8A44" stroke-width="3"/>
    <ellipse cx="96.4" cy="-114.9" rx="14" ry="9" transform="rotate(-70.0 96.4 -114.9)" fill="#6BCD7B" stroke="#2F8A44" stroke-width="3"/>
    <ellipse cx="114.9" cy="-96.4" rx="14" ry="9" transform="rotate(-60.0 114.9 -96.4)" fill="#6BCD7B" stroke="#2F8A44" stroke-width="3"/>
    <ellipse cx="129.9" cy="-75.0" rx="14" ry="9" transform="rotate(-50.0 129.9 -75.0)" fill="#6BCD7B" stroke="#2F8A44" stroke-width="3"/>
    <ellipse cx="141.0" cy="-51.3" rx="14" ry="9" transform="rotate(-40.0 141.0 -51.3)" fill="#6BCD7B" stroke="#2F8A44" stroke-width="3"/>
    <ellipse cx="147.7" cy="-26.0" rx="14" ry="9" transform="rotate(-30.0 147.7 -26.0)" fill="#6BCD7B" stroke="#2F8A44" stroke-width="3"/>
    <ellipse cx="150.0" cy="0.0" rx="14" ry="9" transform="rotate(-20.0 150.0 0.0)" fill="#6BCD7B" stroke="#2F8A44" stroke-width="3"/>
    <ellipse cx="147.7" cy="26.0" rx="14" ry="9" transform="rotate(-10.0 147.7 26.0)" fill="#6BCD7B" stroke="#2F8A44" stroke-width="3"/>
    <ellipse cx="141.0" cy="51.3" rx="14" ry="9" transform="rotate(0.0 141.0 51.3)" fill="#6BCD7B" stroke="#2F8A44" stroke-width="3"/>
    <ellipse cx="129.9" cy="75.0" rx="14" ry="9" transform="rotate(10.0 129.9 75.0)" fill="#6BCD7B" stroke="#2F8A44" stroke-width="3"/>
    <ellipse cx="114.9" cy="96.4" rx="14" ry="9" transform="rotate(20.0 114.9 96.4)" fill="#6BCD7B" stroke="#2F8A44" stroke-width="3"/>
    <ellipse cx="96.4" cy="114.9" rx="14" ry="9" transform="rotate(30.0 96.4 114.9)" fill="#6BCD7B" stroke="#2F8A44" stroke-width="3"/>
    <ellipse cx="75.0" cy="129.9" rx="14" ry="9" transform="rotate(40.0 75.0 129.9)" fill="#6BCD7B" stroke="#2F8A44" stroke-width="3"/>
    <ellipse cx="51.3" cy="141.0" rx="14" ry="9" transform="rotate(50.0 51.3 141.0)" fill="#6BCD7B" stroke="#2F8A44" stroke-width="3"/>
    <ellipse cx="26.0" cy="147.7" rx="14" ry="9" transform="rotate(60.0 26.0 147.7)" fill="#6BCD7B" stroke="#2F8A44" stroke-width="3"/>
    <ellipse cx="0.0" cy="150.0" rx="14" ry="9" transform="rotate(70.0 0.0 150.0)" fill="#6BCD7B" stroke="#2F8A44" stroke-width="3"/>
    <ellipse cx="-26.0" cy="147.7" rx="14" ry="9" transform="rotate(80.0 -26.0 147.7)" fill="#6BCD7B" stroke="#2F8A44" stroke-width="3"/>
    <ellipse cx="-51.3" cy="141.0" rx="14" ry="9" transform="rotate(90.0 -51.3 141.0)" fill="#6BCD7B" stroke="#2F8A44" stroke-width="3"/>
    <ellipse cx="-75.0" cy="129.9" rx="14" ry="9" transform="rotate(100.0 -75.0 129.9)" fill="#6BCD7B" stroke="#2F8A44" stroke-width="3"/>
    <ellipse cx="-96.4" cy="114.9" rx="14" ry="9" transform="rotate(110.0 -96.4 114.9)" fill="#6BCD7B" stroke="#2F8A44" stroke-width="3"/>
    <ellipse cx="-114.9" cy="96.4" rx="14" ry="9" transform="rotate(120.0 -114.9 96.4)" fill="#6BCD7B" stroke="#2F8A44" stroke-width="3"/>
    <ellipse cx="-129.9" cy="75.0" rx="14" ry="9" transform="rotate(130.0 -129.9 75.0)" fill="#6BCD7B" stroke="#2F8A44" stroke-width="3"/>
    <ellipse cx="-141.0" cy="51.3" rx="14" ry="9" transform="rotate(140.0 -141.0 51.3)" fill="#6BCD7B" stroke="#2F8A44" stroke-width="3"/>
    <ellipse cx="-147.7" cy="26.0" rx="14" ry="9" transform="rotate(150.0 -147.7 26.0)" fill="#6BCD7B" stroke="#2F8A44" stroke-width="3"/>
    <ellipse cx="-150.0" cy="0.0" rx="14" ry="9" transform="rotate(160.0 -150.0 0.0)" fill="#6BCD7B" stroke="#2F8A44" stroke-width="3"/>
    <ellipse cx="-147.7" cy="-26.0" rx="14" ry="9" transform="rotate(170.0 -147.7 -26.0)" fill="#6BCD7B" stroke="#2F8A44" stroke-width="3"/>
    <ellipse cx="-141.0" cy="-51.3" rx="14" ry="9" transform="rotate(180.0 -141.0 -51.3)" fill="#6BCD7B" stroke="#2F8A44" stroke-width="3"/>
    <ellipse cx="-129.9" cy="-75.0" rx="14" ry="9" transform="rotate(190.0 -129.9 -75.0)" fill="#6BCD7B" stroke="#2F8A44" stroke-width="3"/>
    <ellipse cx="-114.9" cy="-96.4" rx="14" ry="9" transform="rotate(200.0 -114.9 -96.4)" fill="#6BCD7B" stroke="#2F8A44" stroke-width="3"/>
    <ellipse cx="-96.4" cy="-114.9" rx="14" ry="9" transform="rotate(210.0 -96.4 -114.9)" fill="#6BCD7B" stroke="#2F8A44" stroke-width="3"/>
    <ellipse cx="-75.0" cy="-129.9" rx="14" ry="9" transform="rotate(220.0 -75.0 -129.9)" fill="#6BCD7B" stroke="#2F8A44" stroke-width="3"/>
    <ellipse cx="-51.3" cy="-141.0" rx="14" ry="9" transform="rotate(230.0 -51.3 -141.0)" fill="#6BCD7B" stroke="#2F8A44" stroke-width="3"/>
    <ellipse cx="-26.0" cy="-147.7" rx="14" ry="9" transform="rotate(240.0 -26.0 -147.7)" fill="#6BCD7B" stroke="#2F8A44" stroke-width="3"/>
    <path d="M-120,120 Q-20,60 0,40 Q20,60 120,120" fill="none" stroke="#2F8A44" stroke-width="8"/>
  </g>
</svg>
