<svg xmlns="http://www.w3.org/2000/svg" width="512" height="512" viewBox="0 0 512 512" role="img">
  <defs>
    <!-- Patterns -->
    <pattern id="diagHatch" width="12" height="12" patternUnits="userSpaceOnUse" patternTransform="rotate(45)">
      <line x1="0" y1="0" x2="0" y2="12" stroke="#000000" stroke-width="1.2" opacity="0.6"/>
    </pattern>
    <pattern id="crossHatch" width="12" height="12" patternUnits="userSpaceOnUse">
      <path d="M0,0 L12,12 M12,0 L0,12" stroke="#000000" stroke-width="1.1" opacity="0.5" fill="none"/>
    </pattern>
    <filter id="softShadow" x="-50%" y="-50%" width="200%" height="200%">
      <feDropShadow dx="0" dy="6" stdDeviation="10" flood-opacity="0.25"/>
    </filter>
  </defs>

  <defs>
    <radialGradient id="gH" cx="30%" cy="30%" r="80%">
      <stop offset="0%" stop-color="#c7f7ff"/>
      <stop offset="100%" stop-color="#0f829c"/>
    </radialGradient>
  </defs>
  <g filter="url(#softShadow)">
    <circle cx="256.0" cy="256.0" r="246.0" fill="url(#gH)" stroke="#0B0B0B" stroke-width="10"/>
    <!-- inner bevel rings -->
    <circle cx="256.0" cy="256.0" r="220.0" fill="none" stroke="#0B0B0B" stroke-width="6"/>
    <circle cx="256.0" cy="256.0" r="202.0" fill="none" stroke="rgba(0,0,0,0.35)" stroke-width="4" stroke-dasharray="6 12"/>
  </g>
  <circle cx="256.0" cy="256.0" r="184.0" fill="none" stroke="#0B0B0B" stroke-width="3" stroke-dasharray="1 14"/>
  <g transform="translate(256,256)">
    <rect x="-10" y="-160" width="20" height="320" rx="10" fill="#FFFFFF" stroke="#0B0B0B" stroke-width="8"/>
    <g transform="translate(0,-120) rotate(-8)">
      <path d="M0,0 C-50,-14 -100,-16 -140,10 C-100,54 -60,74 18,60 Z" fill="#E9FBFF" stroke="#0B0B0B" stroke-width="8"/>
      <path d="M0,0 C-50,-14 -100,-16 -140,10 C-100,54 -60,74 18,60 Z" fill="url(#crossHatch)" opacity="0.2"/>
      <line x1="-20" y1="10" x2="-20" y2="58" stroke="#0B0B0B" stroke-width="4" opacity="0.8"/>
      <line x1="-40" y1="10" x2="-40" y2="58" stroke="#0B0B0B" stroke-width="4" opacity="0.8"/>
      <line x1="-60" y1="10" x2="-60" y2="58" stroke="#0B0B0B" stroke-width="4" opacity="0.8"/>
      <line x1="-80" y1="10" x2="-80" y2="58" stroke="#0B0B0B" stroke-width="4" opacity="0.8"/>
      <line x1="-100" y1="10" x2="-100" y2="58" stroke="#0B0B0B" stroke-width="4" opacity="0.8"/>
      <path d="M0,0 C50,-14 100,-16 140,10 C100,54 60,74 18,60 Z" fill="#E9FBFF" stroke="#0B0B0B" stroke-width="8"/>
      <path d="M0,0 C50,-14 100,-16 140,10 C100,54 60,74 18,60 Z" fill="url(#crossHatch)" opacity="0.2"/>
      <line x1="20" y1="10" x2="20" y2="58" stroke="#0B0B0B" stroke-width="4" opacity="0.8"/>
      <line x1="40" y1="10" x2="40" y2="58" stroke="#0B0B0B" stroke-width="4" opacity="0.8"/>
      <line x1="60" y1="10" x2="60" y2="58" stroke="#0B0B0B" stroke-width="4" opacity="0.8"/>
      <line x1="80" y1="10" x2="80" y2="58" stroke="#0B0B0B" stroke-width="4" opacity="0.8"/>
      <line x1="100" y1="10" x2="100" y2="58" stroke="#0B0B0B" stroke-width="4" opacity="0.8"/>
    </g>
    <path d="M-38,118 C-38,40 -20,20 0,0 C20,-20 38,-40 38,-118" fill="none" stroke="#0B0B0B" stroke-width="10" stroke-linecap="round"/>
    <path d="M38,118 C38,40 20,20 0,0 C-20,-20 -38,-40 -38,-118" fill="none" stroke="#0B0B0B" stroke-width="6" stroke-linecap="round"/>
    <circle cx="-38" cy="118" r="8" fill="#FFFFFF" stroke="#0B0B0B" stroke-width="4"/>
    <circle cx="38" cy="118" r="8" fill="#FFFFFF" stroke="#0B0B0B" stroke-width="4"/>
  </g>
  <g transform="translate(256,256)">
    <path d="M-170,0 A 170 170 0 0 1 170 0" fill="none" stroke="#0B0B0B" stroke-width="8" stroke-linecap="round" opacity="0.25"/>
    <path d="M-188,0 A 188 188 0 0 1 188 0" fill="none" stroke="#0B0B0B" stroke-width="6" stroke-linecap="round" opacity="0.25"/>
  </g>
</svg>